<svg width="128" height="128" viewBox="0 0 128 128" xmlns="http://www.w3.org/2000/svg">
  <defs>
    <linearGradient id="bg" x1="0" y1="0" x2="0" y2="1">
      <stop offset="0" stop-color="#1d1d1d"/>
      <stop offset="1" stop-color="#0e0e0e"/>
    </linearGradient>
    <linearGradient id="spark" x1="0" y1="0" x2="1" y2="1">
      <stop offset="0" stop-color="#0d99ff"/>
      <stop offset="1" stop-color="#7b61ff"/>
    </linearGradient>
  </defs>
  <rect x="2" y="2" width="124" height="124" rx="30" fill="url(#bg)" stroke="#2a2a2a" stroke-width="2"/>
  <!-- braces = structured design data -->
  <g fill="none" stroke="#f5f5f3" stroke-width="6" stroke-linecap="round" stroke-linejoin="round">
    <path d="M46 34 C 36 34, 39 57, 29 64 C 39 71, 36 94, 46 94"/>
    <path d="M82 34 C 92 34, 89 57, 99 64 C 89 71, 92 94, 82 94"/>
  </g>
  <!-- 4-point sparkle = the LLM -->
  <path d="M64 38 C 66 53, 75 62, 90 64 C 75 66, 66 75, 64 90 C 62 75, 53 66, 38 64 C 53 62, 62 53, 64 38 Z" fill="url(#spark)"/>
  <circle cx="92" cy="40" r="3.5" fill="url(#spark)"/>
</svg>
